<?xml version="1.0" encoding="utf-8" ?><svg xmlns="http://www.w3.org/2000/svg" xmlns:xlink="http://www.w3.org/1999/xlink" width="1024" height="1024" viewBox="0 0 1024 1024"><path d="M0 0L1024 0L1024 2.61719L1024 1024L0 1024L0 2.79728L0 0Z"/><path fill="#FEFEFE" d="M0 0L1024 0L1024 2.61719L0 2.79728L0 0Z"/><path fill="#FEFEFE" d="M396.82 500.099L618.889 499.99L688.529 499.987C697.197 499.985 716.942 499.482 724.726 500.371C731.005 501.027 736.968 503.457 741.917 507.376C748.795 512.914 753.584 521.689 753.96 530.429C754.488 543.63 754.714 556.599 754.474 569.889C753.428 584.937 756.432 603.188 753.225 617.894C749.973 632.807 736.493 641.009 722.615 642.477L397.204 642.552C399.048 640.794 400.868 639.01 402.662 637.201C432.918 606.543 439.941 561.406 417.383 523.98C411.694 514.541 404.63 507.682 396.82 500.099Z"/><path fill="#FEFEFE" d="M332.12 501.463C370.874 497.148 405.79 525.06 410.115 563.813C414.44 602.566 386.536 637.489 347.784 641.823C309.019 646.158 274.082 618.243 269.756 579.477C265.429 540.711 293.353 505.781 332.12 501.463Z"/><path fill="#FEFEFE" d="M549.95 365.996C581.803 362.312 610.638 385.077 614.446 416.916C618.254 448.754 595.601 477.677 563.778 481.609C531.78 485.563 502.662 462.757 498.833 430.744C495.004 398.73 517.922 369.701 549.95 365.996Z"/><path fill="#FEFEFE" d="M724.374 455.293C728.662 453.893 733.372 454.909 736.703 457.952C740.033 460.996 741.468 465.596 740.458 469.993C739.448 474.39 736.15 477.903 731.826 479.189C725.262 481.14 718.349 477.454 716.31 470.918C714.272 464.381 717.864 457.419 724.374 455.293Z"/><path d="M726.414 456.811C732.113 455.809 737.555 459.587 738.608 465.277C739.661 470.968 735.933 476.444 730.252 477.548C724.499 478.668 718.937 474.88 717.87 469.117C716.803 463.353 720.641 457.825 726.414 456.811Z"/><path fill="#FEFEFE" d="M723.364 460.926C726.265 460.83 731.687 460.324 733.458 462.944C733.512 464.096 733.325 464.992 732.563 465.869C728.896 470.09 733.677 470.595 733.749 474.05L732.711 474.198C731.542 472.748 728.463 468.417 726.989 467.892C726.677 468.215 724.878 472.255 724.218 473.415C722.937 471.414 723.339 463.787 723.364 460.926Z"/><path d="M725.467 462.574C727.503 462.516 728.576 462.321 730.455 462.979C731.574 464.501 731.237 463.947 731.252 466.207C729.371 466.437 728.134 466.738 726.286 466.296C725.127 464.798 725.526 464.945 725.467 462.574Z"/></svg>